<svg width="35" height="39" viewBox="0 0 35 39" fill="none" xmlns="http://www.w3.org/2000/svg">
<path d="M31.875 9.0625C30.5391 9.0625 29.5 10.1758 29.5 11.4375V16.7812C29.5 17.1523 29.2031 17.375 28.9062 17.375H27.7188C27.3477 17.375 27.125 17.1523 27.125 16.7812V5.5C27.125 4.23828 26.0117 3.125 24.75 3.125C23.4141 3.125 22.375 4.23828 22.375 5.5V16.7812C22.375 17.1523 22.0781 17.375 21.7812 17.375H20.5938C20.2227 17.375 20 17.1523 20 16.7812V3.125C20 1.86328 18.8867 0.75 17.625 0.75C16.2891 0.75 15.25 1.86328 15.25 3.125V16.7812C15.25 17.1523 14.9531 17.375 14.6562 17.375H13.4688C13.0977 17.375 12.875 17.1523 12.875 16.7812V5.5C12.875 4.23828 11.7617 3.125 10.5 3.125C9.16406 3.125 8.125 4.23828 8.125 5.5V23.3867L6.34375 21.0117C5.37891 19.6758 3.52344 19.3789 2.1875 20.3438C0.851562 21.3086 0.554688 23.1641 1.51953 24.5L10.8711 37.3398C11.5391 38.2305 12.5781 38.8242 13.7656 38.8242H28.3867C30.0938 38.8242 31.5039 37.6367 31.875 36.0781L33.8047 27.6914C34.1016 26.6523 34.1758 25.6133 34.25 24.5742V11.4375C34.25 10.1758 33.1367 9.0625 31.875 9.0625ZM27.1992 28.5078L21.7812 33.7773C21.4102 34.1484 20.8906 34.1484 20.5195 33.7773L15.1016 28.5078C13.543 26.9492 13.6914 24.4258 15.3984 22.9414C16.957 21.7539 19.1836 21.9766 20.5938 23.3125L21.1875 23.9062L21.707 23.3125C23.1172 21.9766 25.3438 21.7539 26.9023 22.9414C28.6094 24.4258 28.7578 26.9492 27.1992 28.5078Z" fill="white"/>
</svg>
