<svg width="41" height="37" viewBox="0 0 41 37" fill="none" xmlns="http://www.w3.org/2000/svg">
<path d="M29.25 16.25V5C29.25 2.53906 27.2109 0.5 24.75 0.5H4.5C1.96875 0.5 0 2.53906 0 5V16.25C0 18.7812 1.96875 20.75 4.5 20.75V24.6172C4.5 25.1797 5.13281 25.4609 5.55469 25.1094L11.3906 20.75H24.75C27.2109 20.75 29.25 18.7812 29.25 16.25ZM36 11.75H31.5V16.25C31.5 19.9766 28.4062 23 24.75 23H13.5V27.5C13.5 30.0312 15.4688 32 18 32H26.7891L32.625 36.4297C33.0469 36.7109 33.75 36.4297 33.75 35.8672V32H36C38.4609 32 40.5 30.0312 40.5 27.5V16.25C40.5 13.7891 38.4609 11.75 36 11.75Z" fill="white"/>
</svg>
