<svg width="17" height="17" viewBox="0 0 17 17" fill="none" xmlns="http://www.w3.org/2000/svg">
<path d="M3.64715 16.2681H0.269381V5.40141H3.64693L3.64715 16.2681ZM1.95892 3.91609C0.876365 3.91609 0 3.03863 0 1.95739C0.000218654 0.877677 0.876802 0 1.95892 0C3.03885 0 3.91609 0.87724 3.91609 1.95739C3.91609 3.03863 3.03885 3.91609 1.95892 3.91609ZM16.2967 16.2678H12.922V10.9836C12.922 9.72332 12.899 8.10222 11.1664 8.10222C9.40999 8.10222 9.13995 9.47493 9.13995 10.892V16.2678H5.76481V5.40141H9.00438V6.88607H9.04965C9.50073 6.03179 10.6027 5.13093 12.2451 5.13093C15.665 5.13093 16.2965 7.38175 16.2965 10.3071L16.2967 16.2678Z" fill="#00B7DD"/>
</svg>
