<svg width="18" height="15" viewBox="0 0 18 15" fill="none" xmlns="http://www.w3.org/2000/svg">
<path d="M16.1835 3.53725C16.1905 3.69096 16.1939 3.84539 16.1939 4.00053C16.1939 8.73744 12.5309 14.1998 5.83216 14.2C3.7755 14.2 1.86168 13.6066 0.25 12.5897C0.534955 12.6229 0.824994 12.6393 1.11866 12.6393C2.825 12.6393 4.39528 12.0664 5.64187 11.1048C4.04762 11.0757 2.70347 10.0393 2.2396 8.61494C2.46161 8.65689 2.68991 8.67976 2.92402 8.67976C3.25643 8.67976 3.57843 8.63568 3.88445 8.55346C2.21805 8.22507 0.96275 6.77542 0.96275 5.03956C0.96275 5.02336 0.96275 5.00882 0.963234 4.99381C1.45398 5.26238 2.01517 5.42396 2.61268 5.44207C1.63483 4.79982 0.992045 3.70192 0.992045 2.45818C0.992045 1.80139 1.17241 1.18607 1.48521 0.656309C3.28113 2.82542 5.96508 4.25195 8.99184 4.40184C8.92938 4.13922 8.89718 3.86564 8.89718 3.58444C8.89718 1.6055 10.5282 0 12.5394 0C13.587 0 14.5331 0.435871 15.1977 1.13269C16.0273 0.971594 16.8064 0.673229 17.5102 0.262619C17.2379 1.09933 16.6607 1.80139 15.9087 2.24537C16.6454 2.15862 17.3475 1.9663 18 1.68081C17.5126 2.39979 16.8946 3.03132 16.1835 3.53725Z" fill="#00B7DD"/>
</svg>
